<svg width="504" height="304" viewBox="0 0 504 304" fill="none" xmlns="http://www.w3.org/2000/svg">
<g clip-path="url(#clip0)">
<path d="M429.1 203.578C430.774 203.658 432.444 203.347 433.977 202.672C435.511 201.997 436.867 200.974 437.938 199.686C439.009 198.398 439.765 196.879 440.148 195.248C440.531 193.618 440.53 191.921 440.145 190.291C439.759 188.661 439 187.143 437.928 185.856C436.855 184.57 435.498 183.55 433.963 182.876C432.428 182.203 430.758 181.895 429.084 181.977C427.41 182.059 425.778 182.528 424.316 183.347L426.228 188.582L422.295 184.808C420.185 186.735 418.928 189.419 418.798 192.272C418.749 193.272 418.841 194.275 419.073 195.25C419.61 197.538 420.88 199.59 422.69 201.093C424.499 202.596 426.749 203.468 429.1 203.578Z" fill="#57B894"/>
<path d="M460.726 261.355C458.432 257.111 461.035 251.908 464.028 248.123C467.02 244.338 470.667 240.399 470.59 235.576C470.478 228.644 463.114 224.551 457.231 220.876C452.866 218.149 448.839 214.914 445.236 211.24C443.792 209.767 442.395 208.191 441.55 206.309C440.333 203.599 440.367 200.516 440.444 197.547C440.7 187.655 441.189 177.774 441.911 167.901" stroke="#3F3D56" stroke-miterlimit="10"/>
<path d="M429.1 202.078C430.774 202.157 432.444 201.847 433.977 201.171C435.511 200.496 436.867 199.474 437.938 198.186C439.009 196.897 439.765 195.378 440.148 193.748C440.531 192.117 440.53 190.42 440.145 188.791C439.759 187.161 439 185.643 437.928 184.356C436.855 183.069 435.498 182.049 433.963 181.376C432.428 180.703 430.758 180.395 429.084 180.476C427.41 180.558 425.778 181.027 424.316 181.847L426.228 187.081L422.295 183.308C420.185 185.234 418.928 187.919 418.798 190.771C418.749 191.772 418.841 192.774 419.073 193.749C419.61 196.038 420.88 198.089 422.69 199.592C424.499 201.095 426.749 201.968 429.1 202.078V202.078Z" stroke="#3F3D56" stroke-miterlimit="10"/>
<path d="M430.727 169.362C430.811 167.551 431.35 165.79 432.294 164.242C433.238 162.694 434.557 161.409 436.129 160.504L438.552 165.292L438.479 159.496C440.679 158.848 443.029 158.916 445.188 159.689C447.348 160.463 449.205 161.902 450.493 163.799C451.78 165.696 452.431 167.953 452.351 170.244C452.271 172.534 451.465 174.74 450.048 176.543C448.632 178.346 446.678 179.653 444.47 180.274C442.262 180.896 439.914 180.8 437.763 180.001C435.613 179.201 433.773 177.74 432.508 175.828C431.244 173.916 430.62 171.651 430.727 169.362Z" fill="#57B894"/>
<path d="M430.727 167.361C430.811 165.55 431.35 163.79 432.294 162.242C433.238 160.694 434.557 159.408 436.129 158.503L438.552 163.292L438.479 157.495C440.679 156.847 443.029 156.915 445.188 157.689C447.348 158.462 449.205 159.901 450.493 161.798C451.78 163.695 452.431 165.952 452.351 168.243C452.271 170.534 451.465 172.74 450.048 174.543C448.632 176.345 446.678 177.652 444.47 178.273C442.262 178.895 439.914 178.799 437.763 178C435.613 177.201 433.773 175.74 432.508 173.827C431.244 171.915 430.62 169.651 430.727 167.361V167.361Z" stroke="#3F3D56" stroke-miterlimit="10"/>
<path d="M455.449 221.542C458.103 221.666 460.711 220.809 462.774 219.136C464.837 217.462 466.212 215.089 466.636 212.468C467.06 209.847 466.504 207.161 465.074 204.923C463.644 202.685 461.44 201.051 458.881 200.333L458.938 204.787L456.488 199.942C456.478 199.941 456.468 199.94 456.459 199.94C455.039 199.874 453.62 200.088 452.283 200.569C450.946 201.051 449.718 201.791 448.667 202.747C447.616 203.703 446.764 204.857 446.16 206.142C445.555 207.427 445.21 208.818 445.144 210.237C445.077 211.655 445.291 213.073 445.773 214.408C446.255 215.744 446.996 216.972 447.953 218.022C448.91 219.071 450.064 219.923 451.35 220.527C452.636 221.131 454.029 221.476 455.449 221.542Z" fill="#57B894"/>
<path d="M455.366 219.541C458.02 219.665 460.627 218.809 462.691 217.135C464.754 215.462 466.128 213.088 466.553 210.467C466.977 207.846 466.421 205.161 464.991 202.923C463.561 200.685 461.357 199.051 458.798 198.332L458.855 202.787L456.405 197.941C456.395 197.94 456.385 197.939 456.375 197.94C454.956 197.873 453.537 198.087 452.2 198.569C450.863 199.05 449.634 199.79 448.584 200.746C447.533 201.702 446.681 202.856 446.077 204.141C445.472 205.426 445.127 206.817 445.06 208.236C444.994 209.654 445.208 211.072 445.69 212.408C446.172 213.743 446.913 214.971 447.87 216.021C448.827 217.071 449.981 217.922 451.267 218.526C452.553 219.13 453.946 219.475 455.366 219.541V219.541Z" stroke="#3F3D56" stroke-miterlimit="10"/>
<path d="M450.023 242.031C451.159 244.236 453.019 245.983 455.291 246.981C457.563 247.978 460.109 248.164 462.502 247.508C464.895 246.853 466.99 245.395 468.435 243.379C469.88 241.363 470.587 238.912 470.438 236.437C470.289 233.962 469.293 231.614 467.617 229.786C465.941 227.957 463.686 226.76 461.232 226.396C458.777 226.031 456.272 226.521 454.136 227.783C452 229.045 450.363 231.002 449.5 233.327L456.258 238.822L448.823 237.1C448.822 238.816 449.234 240.507 450.023 242.031Z" fill="#57B894"/>
<path d="M450.023 240.531C451.159 242.735 453.019 244.483 455.291 245.48C457.563 246.477 460.109 246.664 462.502 246.008C464.895 245.352 466.99 243.894 468.435 241.878C469.88 239.863 470.587 237.412 470.438 234.937C470.289 232.462 469.293 230.113 467.617 228.285C465.941 226.457 463.686 225.26 461.232 224.895C458.777 224.531 456.272 225.02 454.136 226.282C452 227.544 450.363 229.502 449.5 231.826L456.258 237.321L448.823 235.599C448.822 237.315 449.234 239.007 450.023 240.531V240.531Z" stroke="#3F3D56" stroke-miterlimit="10"/>
<path d="M367.475 76.3835C368.779 81.5153 367.786 87.0343 365.578 91.8476C363.37 96.661 360.017 100.856 356.467 104.788C354.681 106.766 352.749 108.869 352.37 111.506C351.865 115.022 354.238 118.204 355.831 121.379C357.225 124.159 358.07 127.182 358.321 130.281C358.535 132.943 358.202 135.877 356.336 137.788C354.537 139.632 351.774 140.078 349.209 140.316C342.142 140.971 335.024 140.799 327.997 139.804C329.966 137.187 329.227 135.564 329.042 132.296C328.678 125.884 324.008 120.079 323.102 113.722C322.381 108.667 325.729 104.027 328.895 100.019L343.408 81.6411C345.813 78.5957 348.208 75.459 349.935 71.9676C351.169 69.4726 351.401 64.7883 354.505 63.9564C360.355 62.3888 366.337 71.9073 367.475 76.3835Z" fill="#47465A"/>
<path d="M296.252 91.5317C296.252 91.5317 286.24 121.042 281.234 123.043C276.229 125.043 311.27 161.056 311.27 161.056L336.801 148.551L337.802 124.543L327.79 124.043C327.79 124.043 326.288 114.039 331.294 109.038C336.3 104.036 296.252 91.5317 296.252 91.5317Z" fill="#FBBEBE"/>
<path opacity="0.1" d="M296.252 91.5317C296.252 91.5317 286.24 121.042 281.234 123.043C276.229 125.043 311.27 161.056 311.27 161.056L336.801 148.551L337.802 124.543L327.79 124.043C327.79 124.043 326.288 114.039 331.294 109.038C336.3 104.036 296.252 91.5317 296.252 91.5317Z" fill="#363435"/>
<path d="M307.766 141.549C307.766 141.549 286.24 127.044 285.239 115.04C285.239 115.04 269.22 125.543 264.214 125.043C259.208 124.543 245.692 127.544 245.692 129.545C245.692 131.545 258.207 188.065 258.207 188.065C258.207 188.065 249.196 212.073 253.702 219.576C258.207 227.078 260.71 262.091 260.71 262.091H364.834C364.834 262.091 350.817 237.582 358.326 220.076C365.835 202.57 368.839 129.045 368.839 129.045C368.839 129.045 363.332 125.043 357.826 126.044C352.319 127.044 345.811 123.043 341.807 122.542C337.802 122.042 328.726 124.09 328.726 124.09L307.766 141.549Z" fill="#2B3335"/>
<path d="M504 261.554V283.562C504 287.435 502.473 291.152 499.749 293.907C497.025 296.663 493.324 298.235 489.448 298.282L25.9869 303.999C24.8669 304.013 23.7552 303.805 22.7165 303.386C21.6778 302.967 20.7325 302.347 19.9356 301.56C19.1388 300.774 18.506 299.837 18.0742 298.805C17.6424 297.772 17.42 296.664 17.42 295.545V271.217C17.42 269.039 18.2686 266.947 19.786 265.383C21.3034 263.819 23.3705 262.907 25.5493 262.84L490.526 248.501C492.276 248.447 494.018 248.745 495.651 249.377C497.283 250.008 498.771 250.961 500.028 252.179C501.285 253.396 502.284 254.853 502.966 256.464C503.648 258.074 504 259.805 504 261.554Z" fill="#47465A"/>
<path opacity="0.1" d="M504 277.596V283.562C504 287.435 502.473 291.152 499.749 293.907C497.025 296.663 493.324 298.235 489.448 298.282L25.9869 303.999C24.8669 304.013 23.7552 303.805 22.7165 303.386C21.6778 302.967 20.7325 302.347 19.9356 301.56C19.1388 300.774 18.506 299.837 18.0742 298.805C17.6424 297.772 17.42 296.664 17.42 295.545V294.762L504 277.596Z" fill="#363435"/>
<path d="M412.892 262.09L354.252 254.488L249.979 258.289L287.742 270.093L412.892 262.09Z" fill="#F2F2F2"/>
<path d="M257.206 258.589V264.591L200.138 277.596L194.561 276.31L193.63 276.095L152.581 254.088L257.206 258.589Z" fill="#9493B6"/>
<path opacity="0.1" d="M257.206 258.589V264.591L200.138 277.596L194.561 276.31L193.63 270.093L257.206 258.589Z" fill="#363435"/>
<path d="M191.628 268.093C192.629 267.592 213.654 263.591 213.654 263.591L175.609 260.09L191.628 268.093Z" fill="#47465A"/>
<path d="M323.285 117.04C341.255 117.04 355.823 102.485 355.823 84.5293C355.823 66.5738 341.255 52.0181 323.285 52.0181C305.314 52.0181 290.746 66.5738 290.746 84.5293C290.746 102.485 305.314 117.04 323.285 117.04Z" fill="#FBBEBE"/>
<path d="M228.672 231.58C228.672 231.58 199.637 244.084 192.629 240.583C185.621 237.082 164.595 228.079 158.088 246.585C152.84 261.509 183.476 262.446 195.533 262.25C196.991 262.226 198.426 261.887 199.74 261.255C201.053 260.623 202.214 259.713 203.141 258.589L244.941 244.334C244.941 244.334 235.68 228.579 228.672 231.58Z" fill="#FBBEBE"/>
<path d="M310.77 208.572L314.274 211.573L281.735 257.589C281.735 257.589 276.729 258.089 278.231 255.588L310.77 208.572Z" fill="#47465A"/>
<path d="M312.772 211.573L316.276 207.072L314.775 206.071L311.271 210.073L312.772 211.573Z" fill="#47465A"/>
<path d="M253.451 126.294C253.451 126.294 236.431 129.295 236.932 142.299C237.432 155.304 233.177 170.059 229.172 177.061C225.168 184.064 228.171 189.565 229.172 199.069C230.174 208.572 224.166 218.576 227.17 223.577C230.174 228.579 194.631 232.08 194.631 237.082C194.631 242.084 217.158 251.587 213.153 258.089C210.272 262.767 230.581 254.889 242.203 250.1C245.23 248.881 247.917 246.95 250.037 244.471C252.158 241.993 253.648 239.04 254.382 235.863C254.734 234.268 254.828 232.83 254.453 231.83C252.951 227.829 270.722 222.577 271.223 212.573C271.723 202.57 268.72 192.567 266.217 182.563C263.714 172.56 253.451 126.294 253.451 126.294Z" fill="#2B3335"/>
<path d="M5.39474 178.642L152.189 180.03C153.204 180.04 154.195 180.338 155.046 180.891C155.897 181.443 156.573 182.226 156.995 183.149L196.555 269.754C196.933 270.58 197.093 271.49 197.02 272.395C196.947 273.301 196.644 274.173 196.139 274.929C195.634 275.685 194.944 276.299 194.135 276.714C193.326 277.128 192.424 277.329 191.515 277.298L44.2054 272.207C43.2245 272.173 42.2719 271.869 41.4524 271.329C40.6329 270.79 39.9782 270.035 39.5603 269.147L0.51466 186.246C0.130016 185.429 -0.0408902 184.528 0.017951 183.628C0.0767922 182.727 0.363455 181.856 0.85109 181.096C1.33872 180.336 2.01138 179.713 2.80606 179.283C3.60073 178.854 4.49143 178.634 5.39474 178.642Z" fill="#7A799C"/>
<path d="M351.819 231.58C351.819 231.58 322.784 244.084 315.776 240.583C308.767 237.082 287.742 228.079 281.235 246.585C275.986 261.51 306.623 262.447 318.68 262.25C320.137 262.226 321.573 261.887 322.886 261.255C324.2 260.623 325.361 259.713 326.288 258.589L368.839 254.088C368.839 254.088 358.827 228.579 351.819 231.58Z" fill="#FBBEBE"/>
<path opacity="0.1" d="M369.089 136.797C369.089 136.797 376.348 127.044 379.852 136.047C383.356 145.05 382.856 180.062 382.856 180.062C382.856 180.062 388.863 197.568 386.86 209.072C384.858 220.576 388.863 222.077 388.863 222.077C388.863 222.077 389.864 227.078 386.86 229.579C383.857 232.08 381.854 243.084 382.856 244.585C383.857 246.085 381.354 255.588 379.351 255.588C377.349 255.588 373.094 254.838 373.094 254.838C373.094 254.838 362.832 236.082 341.306 234.581C341.306 234.581 344.81 229.579 342.808 219.576C340.805 209.572 369.089 136.797 369.089 136.797Z" fill="#363435"/>
<path d="M367.838 129.545C367.838 129.545 376.098 126.294 379.602 135.297C383.106 144.3 386.36 180.062 386.36 180.062C386.36 180.062 392.367 197.568 390.365 209.072C388.362 220.576 392.367 222.077 392.367 222.077C392.367 222.077 393.368 227.078 390.365 229.579C387.361 232.08 385.359 243.084 386.36 244.585C387.361 246.085 384.858 255.588 382.856 255.588C380.853 255.588 362.331 258.589 362.331 258.589C362.331 258.589 366.336 236.082 344.81 234.581C344.81 234.581 348.314 229.579 346.312 219.576C344.31 209.572 367.838 129.545 367.838 129.545Z" fill="#2B3335"/>
<path d="M334.185 38.6494C329.193 35.5297 323.544 33.6114 317.684 33.0456C311.823 32.4798 305.911 33.2821 300.414 35.3892C294.52 37.7053 289.315 41.4763 284.446 45.5229C280.541 48.769 276.732 52.3103 274.333 56.7843C270.694 63.5679 270.705 71.6429 270.804 79.3383C270.889 86.0382 270.977 92.7586 271.891 99.3966C273.144 108.501 275.952 117.515 275.307 126.682C274.662 135.85 269.27 145.631 260.256 147.459C268.641 148.093 277.07 147.851 285.405 146.736C290.658 146.032 296.173 144.83 300.014 141.181C302.819 138.516 304.404 134.841 305.783 131.227C307.17 127.595 308.439 123.821 308.39 119.934C308.289 111.847 302.668 105.063 299 97.8526C297.97 95.8289 297.067 93.6531 297.102 91.3832C297.138 89.1132 298.324 86.7302 300.436 85.892C303.041 84.8577 306.058 86.4006 308.767 85.6777C313.119 84.5162 314.248 78.4775 318.244 76.3993C321.2 74.8617 324.974 76.0147 327.46 78.233C328.571 79.2251 329.524 80.4242 330.813 81.1714C332.561 82.1844 334.685 82.2336 336.705 82.256C340.478 82.2976 353.355 76.389 356.074 73.7755C358.726 87.4067 378.449 75.5435 367.13 55.4327C363.189 48.4304 357.962 41.9269 351.008 37.8939C344.054 33.8609 335.182 32.6101 327.882 35.9772" fill="#47465A"/>
<path d="M300.507 100.285C302.996 100.285 305.013 96.7017 305.013 92.2819C305.013 87.8621 302.996 84.2792 300.507 84.2792C298.019 84.2792 296.002 87.8621 296.002 92.2819C296.002 96.7017 298.019 100.285 300.507 100.285Z" fill="#FBBEBE"/>
<path d="M344.81 123.302C344.81 123.302 372.593 127.294 374.095 129.295C375.597 131.295 372.593 143.3 372.593 143.3L352.57 146.801L337.161 143.481L344.81 123.302Z" fill="#2B3335"/>
<path opacity="0.1" d="M259.649 142.888C255.465 142.167 251.384 145.951 249.217 150.939C247.051 155.928 246.462 161.906 246.249 167.713C246.038 173.485 246.163 179.38 247.478 184.867C250.18 196.136 257.432 204.103 261.629 214.464C264.852 222.685 266.156 231.533 265.44 240.333" fill="#363435"/>
<path d="M262.653 142.888C258.469 142.167 254.388 145.951 252.221 150.939C250.054 155.928 249.466 161.906 249.253 167.713C249.041 173.485 249.167 179.38 250.482 184.867C253.183 196.136 260.435 204.103 264.632 214.464C267.856 222.685 269.159 231.533 268.444 240.333" fill="#2B3335"/>
<path d="M423.554 254.647L471.981 274.002L502.248 268.558L499.608 246.912L499.221 243.761L448.373 228.035L444.741 231.664L423.554 254.647Z" fill="#2B3335"/>
<path opacity="0.1" d="M451.4 231.888V252.833L502.248 268.558L499.608 246.912L451.4 231.888Z" fill="#363435"/>
<path d="M404.592 259.17L408.019 260.438L448.89 275.562L452.067 276.737C452.167 276.775 452.274 276.788 452.38 276.775C452.486 276.763 452.588 276.725 452.676 276.666L456.419 274.158L495.354 248.058L499.033 245.594C499.139 245.523 499.223 245.423 499.274 245.306C499.326 245.189 499.344 245.06 499.325 244.934C499.306 244.807 499.252 244.689 499.168 244.592C499.085 244.495 498.976 244.424 498.854 244.387L492.988 242.592L451.758 229.972L448.159 228.869C448.062 228.839 447.96 228.831 447.86 228.846C447.761 228.861 447.665 228.898 447.582 228.955L444.746 230.864L408.012 255.581L404.452 257.977C404.349 258.047 404.267 258.143 404.215 258.256C404.163 258.368 404.143 258.493 404.157 258.617C404.172 258.74 404.22 258.857 404.296 258.954C404.373 259.052 404.475 259.127 404.592 259.17Z" fill="#7A799C"/>
<path d="M488.921 247.845L452.439 272.636C452.262 272.756 452.06 272.832 451.849 272.858C451.637 272.884 451.423 272.86 451.223 272.787L412.491 258.659C412.256 258.573 412.049 258.422 411.894 258.225C411.739 258.028 411.641 257.791 411.613 257.542C411.585 257.293 411.626 257.04 411.733 256.813C411.84 256.586 412.007 256.393 412.217 256.256L447.529 233.232C447.695 233.124 447.882 233.054 448.078 233.026C448.273 232.999 448.472 233.015 448.661 233.074L488.563 245.435C488.806 245.511 489.023 245.654 489.188 245.847C489.353 246.04 489.461 246.276 489.498 246.528C489.536 246.779 489.501 247.036 489.399 247.269C489.297 247.502 489.132 247.702 488.921 247.845Z" fill="#F2F2F2"/>
<path d="M492.988 242.592V248.059H495.354L499.033 245.594C499.139 245.523 499.223 245.423 499.275 245.306C499.326 245.189 499.344 245.06 499.325 244.934C499.306 244.807 499.252 244.689 499.168 244.592C499.085 244.495 498.976 244.424 498.854 244.387L492.988 242.592Z" fill="#2B3335"/>
<path d="M448.89 273.85V275.562L452.067 276.737C452.167 276.775 452.274 276.788 452.38 276.775C452.486 276.763 452.588 276.725 452.676 276.666L456.419 274.158V273.85H448.89Z" fill="#2B3335"/>
<path d="M404.592 259.17L408.019 260.438V255.581H408.012L404.452 257.978C404.349 258.047 404.267 258.143 404.215 258.256C404.163 258.368 404.143 258.493 404.157 258.617C404.172 258.74 404.22 258.857 404.296 258.954C404.373 259.052 404.475 259.127 404.592 259.17Z" fill="#2B3335"/>
<path d="M444.746 230.864H451.758V229.972L448.159 228.869C448.062 228.839 447.96 228.831 447.86 228.846C447.761 228.861 447.665 228.898 447.582 228.955L444.746 230.864Z" fill="#2B3335"/>
<path d="M429.411 243.084C429.688 243.084 429.912 242.86 429.912 242.584C429.912 242.308 429.688 242.084 429.411 242.084C429.135 242.084 428.91 242.308 428.91 242.584C428.91 242.86 429.135 243.084 429.411 243.084Z" fill="#F2F2F2"/>
<path d="M216.593 13.0045H17.3552V114.039H216.593V13.0045Z" fill="#F2F2F2"/>
<path d="M52.3259 104.786L97.4507 29.5102L144.256 104.786" fill="#2B3335"/>
<path d="M120.728 66.2729L129.739 42.7648L180.8 104.786H120.478L120.728 66.2729Z" fill="#2B3335"/>
<path d="M111.242 56.9326C112.644 56.0751 113.865 54.9498 114.832 53.6209C115.799 52.292 116.495 50.7857 116.879 49.188C117.264 47.5903 117.329 45.9326 117.072 44.3096C116.815 42.6866 116.24 41.1302 115.38 39.7293C114.521 38.3285 113.393 37.1106 112.062 36.1454C110.731 35.1802 109.223 34.4866 107.623 34.1041C106.024 33.7217 104.365 33.658 102.741 33.9166C101.117 34.1753 99.5594 34.7512 98.1582 35.6115" fill="#2B3335"/>
<path d="M228.357 0.250061H29.1192V101.285H228.357V0.250061Z" stroke="#3F3D56" stroke-miterlimit="10"/>
<path d="M54.8288 101.285L99.9536 26.009L146.759 101.285" stroke="#3F3D56" stroke-miterlimit="10"/>
<path d="M122.23 61.7713L131.241 38.2632L182.302 101.285" stroke="#3F3D56" stroke-miterlimit="10"/>
<path d="M114.746 49.9302C116.149 49.0727 117.369 47.9473 118.336 46.6185C119.303 45.2896 119.999 43.7832 120.384 42.1855C120.768 40.5879 120.833 38.9301 120.576 37.3072C120.319 35.6842 119.744 34.1278 118.884 32.7269C118.025 31.326 116.897 30.1082 115.566 29.143C114.235 28.1778 112.727 27.4841 111.128 27.1017C109.528 26.7193 107.869 26.6555 106.245 26.9142C104.621 27.1728 103.064 27.7487 101.662 28.609" stroke="#3F3D56" stroke-miterlimit="10"/>
</g>
<defs>
<clipPath id="clip0">
<rect width="504" height="304" fill="white"/>
</clipPath>
</defs>
</svg>
