<svg width="238" height="358" viewBox="0 0 238 358" fill="none" xmlns="http://www.w3.org/2000/svg">
<g clip-path="url(#clip0)">
<path d="M188.113 287.982C187.932 288.187 187.75 288.397 187.574 288.608C185.117 291.452 182.897 294.493 180.937 297.699C180.779 297.944 180.627 298.196 180.486 298.442C175.846 306.187 172.687 314.724 171.17 323.62C170.83 325.632 170.574 327.656 170.402 329.692C170.279 331.26 170.205 332.83 170.179 334.401C170.085 341 170.672 348.342 166.409 353.384C165.27 354.711 163.879 355.801 162.317 356.59C161.14 357.198 159.897 357.667 158.612 357.988H145.321C144.653 357.889 143.984 357.784 143.316 357.678C143.298 357.678 143.281 357.672 143.263 357.672L143.128 357.719L142.325 357.988L142.29 358V357.988C142.291 357.965 142.289 357.941 142.284 357.918C142.285 357.875 142.283 357.832 142.278 357.789V357.784C142.272 357.667 142.266 357.555 142.266 357.438L142.249 357.128C142.249 357.128 142.243 357.123 142.249 357.123C142.243 356.947 142.231 356.772 142.225 356.59C141.61 341.322 143.111 325.544 150.334 312.101C152.81 307.495 156 303.308 159.784 299.693C159.806 299.67 159.83 299.649 159.855 299.629C167.365 292.481 177.074 287.806 187.322 287.964C187.586 287.964 187.85 287.97 188.113 287.982Z" fill="#F0F0F0"/>
<path d="M188.143 288.312C176.536 294.255 167.101 303.697 161.179 315.295C159.859 317.769 158.939 320.436 158.451 323.196C158.064 325.9 158.409 328.659 159.451 331.185C160.375 333.56 161.596 335.882 161.925 338.44C162.075 339.751 161.944 341.08 161.543 342.337C161.142 343.595 160.478 344.754 159.596 345.738C157.463 348.248 154.554 349.842 151.654 351.303C148.435 352.925 145.065 354.559 142.83 357.492C142.559 357.847 142.022 357.407 142.292 357.052C146.181 351.95 153.031 350.837 157.695 346.689C159.872 344.753 161.477 342.151 161.296 339.154C161.137 336.534 159.88 334.138 158.924 331.741C157.871 329.292 157.435 326.622 157.655 323.966C158 321.19 158.816 318.493 160.068 315.99C162.796 310.31 166.402 305.094 170.755 300.532C175.693 295.297 181.492 290.945 187.902 287.662C188.299 287.459 188.537 288.11 188.143 288.312H188.143Z" fill="white"/>
<path d="M162.865 311.449C161.05 310.193 159.741 308.334 159.173 306.204C158.604 304.075 158.812 301.813 159.761 299.822C159.954 299.42 160.59 299.701 160.396 300.103C159.509 301.955 159.315 304.063 159.849 306.045C160.382 308.027 161.609 309.753 163.306 310.913C163.674 311.165 163.232 311.7 162.865 311.449Z" fill="white"/>
<path d="M158.823 330.042C163.273 329.279 167.272 326.87 170.021 323.296C170.293 322.941 170.83 323.381 170.558 323.735C167.69 327.449 163.524 329.948 158.892 330.732C158.45 330.807 158.384 330.116 158.823 330.042V330.042Z" fill="white"/>
<path d="M176.058 296.142C176.659 296.774 177.407 297.247 178.237 297.518C179.066 297.79 179.95 297.852 180.81 297.699C181.25 297.619 181.316 298.309 180.878 298.388C179.928 298.554 178.952 298.484 178.034 298.186C177.117 297.887 176.287 297.37 175.617 296.678C175.549 296.618 175.505 296.534 175.496 296.443C175.487 296.353 175.513 296.262 175.569 296.19C175.628 296.119 175.712 296.074 175.803 296.065C175.895 296.056 175.986 296.084 176.058 296.142Z" fill="white"/>
<path d="M220.482 330.312C220.212 330.371 219.943 330.429 219.667 330.494H219.661C215.987 331.29 212.383 332.382 208.885 333.758C208.616 333.863 208.346 333.968 208.076 334.08H208.07C199.732 337.467 192.092 342.362 185.534 348.517C185.51 348.541 185.487 348.558 185.463 348.582C185.449 348.599 185.434 348.614 185.417 348.628L185.387 348.658C182.785 351.117 180.373 353.769 178.17 356.59C178.17 356.596 178.164 356.602 178.158 356.608C177.807 357.064 177.449 357.52 177.097 357.988H142.325L142.29 358V357.988H142.143C142.143 357.983 142.149 357.977 142.155 357.971C142.155 357.965 142.161 357.965 142.161 357.959C142.202 357.901 142.243 357.842 142.278 357.789V357.784C142.287 357.766 142.299 357.75 142.313 357.737C142.348 357.678 142.389 357.632 142.419 357.579C142.653 357.251 142.882 356.918 143.116 356.59C143.498 356.046 143.884 355.502 144.277 354.964C144.277 354.963 144.277 354.962 144.278 354.962C144.278 354.961 144.278 354.96 144.279 354.96C144.28 354.959 144.28 354.959 144.281 354.959C144.282 354.958 144.282 354.958 144.283 354.958V354.952C144.289 354.946 144.289 354.941 144.295 354.935L144.307 354.923C149.143 348.242 154.584 341.901 160.816 336.589C161.004 336.425 161.191 336.262 161.391 336.11C164.213 333.727 167.227 331.581 170.402 329.692C172.137 328.668 173.925 327.728 175.766 326.872C180.515 324.689 185.577 323.264 190.769 322.649H190.781C190.793 322.649 190.804 322.643 190.822 322.643C190.84 322.643 190.851 322.637 190.863 322.637C201.187 321.444 211.77 323.544 219.866 329.827C220.077 329.99 220.277 330.148 220.482 330.312Z" fill="#F0F0F0"/>
<path d="M142.143 357.988H142.29V358L142.325 357.988H151.629C148.856 357.514 146.089 357.146 143.316 357.678C143.251 357.69 143.193 357.702 143.128 357.719C142.847 357.772 142.565 357.842 142.284 357.918C142.266 357.924 142.243 357.93 142.225 357.936C142.2 357.943 142.176 357.955 142.155 357.971C142.14 357.973 142.126 357.979 142.114 357.988H142.143Z" fill="white"/>
<path d="M220.312 330.599C220.095 330.564 219.884 330.523 219.667 330.493H219.661C215.138 329.758 210.546 329.526 205.972 329.803C205.743 329.815 205.508 329.832 205.274 329.844C198.924 330.286 192.68 331.705 186.765 334.05C186.759 334.05 186.759 334.05 186.759 334.056C186.695 334.079 186.63 334.103 186.572 334.126C185.194 334.682 183.834 335.29 182.503 335.946C179.956 337.129 177.612 338.704 175.555 340.614C173.909 342.235 172.663 344.216 171.914 346.399C171.838 346.622 171.762 346.838 171.692 347.06C171.639 347.236 171.586 347.417 171.533 347.593C170.842 350.044 170.414 352.63 169.136 354.87C168.78 355.495 168.346 356.073 167.846 356.59C167.329 357.127 166.745 357.597 166.11 357.988H164.633C165.442 357.64 166.191 357.168 166.855 356.59C167.371 356.146 167.823 355.632 168.197 355.063C169.651 352.875 170.097 350.208 170.777 347.722C170.889 347.318 171.006 346.926 171.135 346.534C171.812 344.389 172.946 342.415 174.459 340.748C176.409 338.739 178.687 337.076 181.195 335.829C182.778 334.998 184.404 334.245 186.073 333.571C186.29 333.477 186.507 333.395 186.724 333.313C197.262 329.221 208.705 328.017 219.866 329.827C220.083 329.856 220.294 329.897 220.511 329.932C220.951 330.008 220.752 330.675 220.312 330.599Z" fill="white"/>
<path d="M186.17 333.885C185.478 331.792 185.555 329.521 186.386 327.479C187.217 325.437 188.748 323.756 190.707 322.737C191.104 322.532 191.442 323.138 191.044 323.343C189.219 324.289 187.792 325.855 187.022 327.758C186.252 329.661 186.19 331.776 186.845 333.722C186.987 334.145 186.311 334.305 186.17 333.885H186.17Z" fill="white"/>
<path d="M171.723 346.303C175.737 348.367 180.383 348.845 184.735 347.643C185.166 347.523 185.329 348.197 184.899 348.316C180.368 349.559 175.534 349.051 171.362 346.895C170.964 346.689 171.328 346.098 171.723 346.303Z" fill="white"/>
<path d="M205.94 329.588C206.038 330.454 206.351 331.281 206.849 331.997C207.347 332.712 208.016 333.293 208.794 333.686C209.194 333.887 208.83 334.478 208.433 334.278C207.574 333.839 206.837 333.197 206.285 332.408C205.732 331.619 205.382 330.707 205.264 329.752C205.246 329.662 205.262 329.57 205.309 329.492C205.357 329.414 205.432 329.357 205.52 329.333C205.61 329.312 205.704 329.327 205.783 329.375C205.861 329.422 205.918 329.499 205.94 329.588Z" fill="white"/>
<path d="M185.89 97.279C186.048 77.9097 186.838 58.3533 188.258 38.6097C188.282 38.2178 188.311 37.8317 188.34 37.4397C189.091 27.1614 190.009 16.8459 191.096 6.49346V6.43496C191.095 4.72861 190.415 3.09245 189.206 1.88588C187.997 0.679316 186.357 0.00101824 184.647 0H11.6943C9.99002 0.00334127 8.35604 0.678372 7.14817 1.87812C5.9403 3.07786 5.25636 4.70516 5.24525 6.4057C3.74437 20.6621 2.56789 34.8482 1.71583 48.9642C1.68065 49.4263 1.65721 49.8826 1.63376 50.3447C1.21164 57.3237 0.875506 64.2852 0.625359 71.2291C0.607771 71.6386 0.590178 72.0481 0.584316 72.4576C-1.01634 115.063 0.541559 157.728 5.24525 200.104C5.25758 201.803 5.9421 203.429 7.14987 204.628C8.35764 205.826 9.99093 206.501 11.6943 206.504H184.647C186.357 206.503 187.997 205.824 189.206 204.618C190.415 203.411 191.095 201.775 191.096 200.069V200.004C190.246 192.475 189.499 184.898 188.856 177.271C188.763 176.154 188.671 175.037 188.581 173.919C188.135 168.426 187.746 162.912 187.414 157.376C187.344 156.258 187.279 155.141 187.221 154.024C186.593 142.944 186.183 131.778 185.989 120.527C185.966 119.409 185.948 118.298 185.931 117.175C185.861 111.682 185.839 106.167 185.866 100.631C185.866 99.5136 185.872 98.3963 185.89 97.279Z" fill="#F0F0F0"/>
<path d="M238 43.8747C237.999 42.1683 237.319 40.5321 236.11 39.3256C234.901 38.119 233.261 37.4407 231.551 37.4397H58.5983C56.894 37.443 55.26 38.1181 54.0522 39.3178C52.8443 40.5176 52.1604 42.1449 52.1493 43.8454C46.3099 99.4025 45.3425 153.977 49.253 206.504C49.7279 213.003 50.2829 219.469 50.9181 225.902C51.2581 229.348 51.6197 232.784 52.0027 236.21C52.0496 236.654 52.0965 237.099 52.1493 237.543C52.1616 239.243 52.8461 240.869 54.0539 242.068C55.2617 243.266 56.8949 243.94 58.5983 243.943H231.551C233.261 243.942 234.901 243.264 236.11 242.057C237.319 240.851 237.999 239.215 238 237.508V237.444C231.006 175.569 231.006 110.465 238 43.9332V43.8747Z" fill="white"/>
<path d="M238 43.8747C237.999 42.1683 237.319 40.5321 236.11 39.3256C234.901 38.119 233.261 37.4407 231.551 37.4397H58.5983C56.894 37.443 55.26 38.1181 54.0522 39.3178C52.8443 40.5176 52.1604 42.1449 52.1493 43.8454C46.3099 99.4025 45.3425 153.977 49.253 206.504C49.7279 213.003 50.2829 219.469 50.9181 225.902C51.2581 229.348 51.6197 232.784 52.0027 236.21C52.0496 236.654 52.0965 237.099 52.1493 237.543C52.1616 239.243 52.8461 240.869 54.0539 242.068C55.2617 243.266 56.8949 243.94 58.5983 243.943H231.551C233.261 243.942 234.901 243.264 236.11 242.057C237.319 240.851 237.999 239.215 238 237.508V237.444C231.006 175.569 231.006 110.465 238 43.9332V43.8747ZM236.827 237.543C236.817 238.933 236.257 240.263 235.268 241.242C234.28 242.222 232.944 242.772 231.551 242.773H58.5983C57.1996 242.771 55.8587 242.216 54.8696 241.229C53.8805 240.242 53.3239 238.904 53.3218 237.508V237.444C53.2808 237.07 53.2397 236.689 53.1987 236.315C52.7942 232.735 52.417 229.145 52.0672 225.545C51.4516 219.233 50.9063 212.886 50.4315 206.504C46.521 154.006 47.4825 99.4668 53.3218 43.9332V43.8747C53.3239 42.4789 53.8805 41.141 54.8696 40.1541C55.8587 39.1672 57.1996 38.6118 58.5983 38.6097H231.551C232.945 38.6101 234.283 39.161 235.271 40.1419C236.26 41.1229 236.819 42.4543 236.827 43.8454C229.833 110.43 229.833 175.604 236.827 237.543Z" fill="#E4E4E4"/>
<path d="M70.5198 97.2791C70.0749 97.2802 69.6486 97.4574 69.3344 97.7717C69.0202 98.0861 68.8438 98.5119 68.8438 98.9559C68.8438 99.3998 69.0202 99.8256 69.3344 100.14C69.6486 100.454 70.0749 100.631 70.5198 100.633H211.069C211.514 100.631 211.941 100.454 212.255 100.14C212.569 99.8256 212.745 99.3998 212.745 98.9559C212.745 98.5119 212.569 98.0861 212.255 97.7717C211.941 97.4574 211.514 97.2802 211.069 97.2791H70.5198Z" fill="#E6E6E6"/>
<path d="M70.5198 107.341C70.0747 107.342 69.648 107.519 69.3335 107.833C69.0191 108.148 68.8424 108.574 68.8424 109.018C68.8424 109.462 69.0191 109.888 69.3335 110.202C69.648 110.517 70.0747 110.694 70.5198 110.695H165.934C166.379 110.694 166.806 110.517 167.12 110.202C167.435 109.888 167.611 109.462 167.611 109.018C167.611 108.574 167.435 108.148 167.12 107.833C166.806 107.519 166.379 107.342 165.934 107.341H70.5198Z" fill="#E6E6E6"/>
<path d="M70.5198 117.175C70.0747 117.176 69.648 117.353 69.3335 117.667C69.0191 117.982 68.8424 118.408 68.8424 118.852C68.8424 119.296 69.0191 119.722 69.3335 120.036C69.648 120.351 70.0747 120.528 70.5198 120.529H211.069C211.515 120.528 211.941 120.351 212.256 120.036C212.57 119.722 212.747 119.296 212.747 118.852C212.747 118.408 212.57 117.982 212.256 117.667C211.941 117.353 211.515 117.176 211.069 117.175H70.5198Z" fill="#E6E6E6"/>
<path d="M70.5198 127.237C70.0749 127.238 69.6486 127.415 69.3344 127.73C69.0202 128.044 68.8438 128.47 68.8438 128.914C68.8438 129.358 69.0202 129.783 69.3344 130.098C69.6486 130.412 70.0749 130.589 70.5198 130.59H165.934C166.379 130.589 166.805 130.412 167.119 130.098C167.433 129.783 167.61 129.358 167.61 128.914C167.61 128.47 167.433 128.044 167.119 127.73C166.805 127.415 166.379 127.238 165.934 127.237H70.5198Z" fill="#E6E6E6"/>
<path d="M70.5198 154.024C70.0749 154.025 69.6486 154.202 69.3344 154.517C69.0202 154.831 68.8438 155.257 68.8438 155.701C68.8438 156.145 69.0202 156.57 69.3344 156.885C69.6486 157.199 70.0749 157.376 70.5198 157.377H211.069C211.514 157.376 211.941 157.199 212.255 156.885C212.569 156.57 212.745 156.145 212.745 155.701C212.745 155.257 212.569 154.831 212.255 154.517C211.941 154.202 211.514 154.025 211.069 154.024H70.5198Z" fill="#E6E6E6"/>
<path d="M70.5198 164.085C70.0747 164.086 69.648 164.263 69.3335 164.578C69.0191 164.892 68.8424 165.318 68.8424 165.762C68.8424 166.206 69.0191 166.632 69.3335 166.947C69.648 167.261 70.0747 167.438 70.5198 167.439H165.934C166.379 167.438 166.806 167.261 167.12 166.947C167.435 166.632 167.611 166.206 167.611 165.762C167.611 165.318 167.435 164.892 167.12 164.578C166.806 164.263 166.379 164.086 165.934 164.085H70.5198Z" fill="#E6E6E6"/>
<path d="M70.5198 173.92C70.0747 173.921 69.648 174.098 69.3335 174.412C69.0191 174.726 68.8424 175.152 68.8424 175.596C68.8424 176.041 69.0191 176.467 69.3335 176.781C69.648 177.095 70.0747 177.272 70.5198 177.273H211.069C211.515 177.272 211.941 177.095 212.256 176.781C212.57 176.467 212.747 176.041 212.747 175.596C212.747 175.152 212.57 174.726 212.256 174.412C211.941 174.098 211.515 173.921 211.069 173.92H70.5198Z" fill="#E6E6E6"/>
<path d="M70.5198 183.981C70.0749 183.982 69.6486 184.16 69.3344 184.474C69.0202 184.788 68.8438 185.214 68.8438 185.658C68.8438 186.102 69.0202 186.528 69.3344 186.842C69.6486 187.156 70.0749 187.334 70.5198 187.335H165.934C166.379 187.334 166.805 187.156 167.119 186.842C167.433 186.528 167.61 186.102 167.61 185.658C167.61 185.214 167.433 184.788 167.119 184.474C166.805 184.16 166.379 183.982 165.934 183.981H70.5198Z" fill="#E6E6E6"/>
<path d="M98.3293 76.4588H71.4847C71.137 76.4584 70.8037 76.3204 70.5578 76.0751C70.312 75.8298 70.1736 75.4972 70.1732 75.1502V70.8586C70.1736 70.5117 70.312 70.1791 70.5578 69.9337C70.8037 69.6884 71.137 69.5504 71.4847 69.55H98.3293C98.677 69.5504 99.0103 69.6884 99.2562 69.9337C99.502 70.1791 99.6403 70.5117 99.6407 70.8586V75.1502C99.6403 75.4972 99.502 75.8298 99.2562 76.0751C99.0103 76.3204 98.677 76.4584 98.3293 76.4588Z" fill="#2B3335"/>
<path d="M191.588 214.504L183.365 217.216C181.995 217.668 180.624 218.119 179.254 218.571C177.984 218.988 176.611 219.484 175.252 219.305C174.313 219.181 173.243 218.642 172.95 217.678C172.673 216.766 173.26 215.811 173.971 215.272C175.933 213.782 178.414 215.298 179.805 216.841C181.505 218.728 182.468 221.163 184.063 223.138C185.483 224.909 187.283 226.339 189.33 227.324C193.4 229.241 198.363 229.037 201.993 226.244C206.327 222.907 206.77 217.125 206.793 212.081C206.785 211.853 206.689 211.638 206.525 211.48C206.36 211.322 206.141 211.233 205.913 211.233C205.685 211.233 205.466 211.322 205.302 211.48C205.138 211.638 205.042 211.853 205.034 212.081C205.013 216.653 204.752 222.257 200.574 225.118C196.573 227.858 191.313 227.131 187.629 224.212C185.575 222.584 184.312 220.463 182.964 218.266C181.648 216.121 180.014 214.042 177.538 213.208C176.476 212.823 175.313 212.816 174.247 213.187C173.18 213.559 172.274 214.287 171.684 215.248C171.414 215.701 171.243 216.207 171.185 216.731C171.126 217.255 171.18 217.786 171.342 218.288C171.505 218.789 171.773 219.251 172.129 219.641C172.484 220.031 172.919 220.342 173.404 220.551C176.275 221.917 179.56 220.317 182.325 219.405L192.055 216.197C193.125 215.844 192.667 214.148 191.588 214.504L191.588 214.504Z" fill="#2B3335"/>
<path d="M167.221 343.495L161.455 345.391L151.384 324.103L159.894 321.305L167.221 343.495Z" fill="#9F616A"/>
<path d="M171.334 348.33L170.941 347.142L169.909 344.013L169.206 341.883L167.283 342.515L166.884 342.486L161.602 342.129L160.898 342.082L159.855 342.012L158.776 341.936L155.762 346.306H155.757C154.63 346.672 153.588 347.258 152.69 348.029C151.792 348.8 151.057 349.742 150.527 350.799C150.463 350.927 150.404 351.056 150.345 351.185C150.2 351.5 150.076 351.824 149.976 352.156C149.52 353.589 149.435 355.115 149.73 356.59C149.805 356.956 149.901 357.317 150.017 357.672L150.035 357.731L150.105 357.947L150.527 357.807L154.232 356.59L167.213 352.325L169.786 351.477L170.578 351.214H170.584L172.12 350.711L171.334 348.33Z" fill="#363435"/>
<path d="M112.568 348.5L106.498 348.5L103.61 325.136L112.569 325.137L112.568 348.5Z" fill="#9F616A"/>
<path d="M102.853 246.08L100.162 250.725C100.162 250.725 97.2052 251.531 98.1716 261.149C98.854 267.94 99.0753 298.348 100.793 318.103C101.508 326.325 102.483 332.702 103.857 334.762L104.704 335.519L113.537 336.361L113.76 336.283L117.004 313.424C117.586 309.32 117.499 305.15 116.746 301.074L116.159 294.639L124.293 262.056C124.293 262.056 132.575 282.939 137.852 302.829C139.122 307.617 143.946 310.662 145.776 314.77C146.388 316.147 146.991 317.481 147.578 318.761C151.447 327.188 153.386 333.324 154.854 333.834H156.026L163.062 331.494L164.446 328.022L153.681 296.394L145.62 245.327C130.261 237.087 115.854 236.17 102.853 246.08Z" fill="#363435"/>
<path d="M146.851 177.271C146.321 176.106 145.697 174.985 144.987 173.919C143.362 171.393 141.105 169.334 138.438 167.946L136.128 167.437L131.989 166.525L129.808 164.085L126.232 160.09H113.92L112.272 164.085L110.889 167.437L110.296 168.865L99.7552 174.124C99.7493 174.124 99.7493 174.124 99.7434 174.13C99.8842 175.183 100.023 176.23 100.16 177.271C100.459 179.535 100.74 181.772 101.004 183.981C101.139 185.104 101.268 186.222 101.391 187.333C101.784 190.82 102.122 194.246 102.405 197.611C102.657 200.618 102.859 203.582 103.009 206.503C103.376 213.137 103.403 219.786 103.091 226.423C103.009 227.984 104.563 229.763 104.44 231.29C104.234 233.782 102.305 235.993 101.965 238.374C101.754 239.837 101.848 241.393 101.479 242.773C101.376 243.177 101.222 243.566 101.022 243.932C101.022 243.937 101.016 243.937 101.016 243.943C96.7944 251.466 100.107 247.874 99.7141 249.565L99.9018 249.612C99.9897 249.635 100.259 249.705 100.693 249.805C103.173 250.396 113.398 240.819 120.263 240.819C124.385 240.819 135.295 247.582 138.948 248.073C141.838 248.459 144.418 248.81 145.954 247.459C146.4 247.065 146.74 246.566 146.945 246.008L146.962 245.956L146.957 245.903L146.81 243.943L146.722 242.773L145.467 225.984C144.767 225.117 144.324 224.071 144.189 222.966C144.054 221.86 144.233 220.739 144.705 219.73L144.963 219.186L144.013 206.503L143.838 204.134L143.773 203.333V203.327L143.316 197.202L144.418 193.856V193.85L146.564 187.333L147.666 183.981L148.358 181.875L148.405 181.735C148.036 180.199 147.515 178.704 146.851 177.271Z" fill="#2B3335"/>
<path d="M157.547 237.765L145.728 207.286L140.238 196.156L150.794 190.338L159.296 205.284L164.995 236.512C165.892 237.123 166.585 237.987 166.986 238.995C167.387 240.002 167.477 241.106 167.244 242.165C167.011 243.223 166.466 244.188 165.68 244.936C164.893 245.683 163.901 246.179 162.83 246.359C161.759 246.539 160.658 246.396 159.669 245.948C158.681 245.499 157.849 244.766 157.281 243.842C156.713 242.918 156.435 241.846 156.482 240.763C156.53 239.68 156.9 238.636 157.547 237.765H157.547Z" fill="#9F616A"/>
<path d="M157.785 195.775L154.76 193.821L151.283 187.333L149.489 183.981L148.358 181.875L147.877 180.974L142.442 177.271L138.772 174.768L135.782 177.271L134.357 178.465L135.753 183.981L136.597 187.333L138.438 194.605L143.838 204.134L145.18 206.504L145.948 207.867L145.954 207.878L146.06 208.06L159.702 207.492L160.13 207.475L160.154 206.504L160.165 206.153C160.171 205.977 160.171 205.802 160.171 205.626C160.17 202.2 159.352 198.824 157.785 195.775Z" fill="#2B3335"/>
<path d="M54.5265 225.644L78.7053 203.598L87.1084 194.457L96.3718 202.162L85.4966 215.488L58.3989 232.115C58.1536 233.17 57.5975 234.129 56.8021 234.867C56.0067 235.605 55.0083 236.089 53.9352 236.257C52.8621 236.424 51.7633 236.268 50.7799 235.807C49.7966 235.347 48.9736 234.604 48.4167 233.674C47.8598 232.743 47.5945 231.668 47.6548 230.586C47.7151 229.503 48.0982 228.464 48.755 227.601C49.4119 226.738 50.3123 226.09 51.3408 225.741C52.3692 225.393 53.4786 225.359 54.5265 225.644H54.5265Z" fill="#9F616A"/>
<path d="M104.44 187.333L104.393 183.981L104.305 177.271L104.269 174.668L104.17 174.598C103.624 174.241 103.005 174.009 102.358 173.919C101.789 173.825 101.209 173.825 100.64 173.919C100.341 173.966 100.045 174.034 99.7551 174.124C99.7493 174.124 99.7493 174.124 99.7434 174.13C98.0055 174.753 96.471 175.837 95.3052 177.266L95.2994 177.271C93.5413 179.358 91.9828 181.605 90.6443 183.981C89.9818 185.105 89.3487 186.239 88.7565 187.333C86.5169 191.493 84.9047 195.096 84.8753 195.161L78.18 203.836L78.2738 203.994L79.7454 206.504L85.1392 215.706L85.9951 217.168L88.182 216.004C90.7311 214.647 92.741 212.464 93.8806 209.815L94.6604 206.843L94.9477 206.504L102.405 197.612L104.539 195.061L104.44 187.333Z" fill="#2B3335"/>
<path d="M129.993 148.642C130.991 142.502 126.813 136.718 120.66 135.721C114.507 134.725 108.71 138.894 107.711 145.034C106.713 151.173 110.891 156.958 117.044 157.954C123.197 158.95 128.994 154.781 129.993 148.642Z" fill="#9F616A"/>
<path d="M107.942 139.455C107.44 137.704 106.437 136.202 106.939 136.202C107.44 136.202 107.691 134.951 107.691 134.951C107.691 134.951 108.193 134.7 108.443 134.951C108.694 135.201 108.945 133.199 108.945 133.199C108.945 133.199 109.196 132.448 109.447 132.949C109.697 133.449 109.697 133.199 109.948 132.448C110.199 131.697 111.453 131.197 111.453 131.197C111.453 131.197 116.218 131.447 116.971 130.446C117.723 129.445 126.251 130.196 128.006 131.447C129.762 132.698 136.679 134.935 132.575 141.955C134.92 146.05 131.419 153.354 130.514 154.221C129.084 155.591 128.094 156.085 121.325 157.429C120 157.692 116.746 146.635 116.746 146.635C116.746 146.635 108.443 141.207 107.942 139.455Z" fill="#363435"/>
<path d="M112.935 347.587L112.571 347.441L106.04 344.785L105.038 344.381L100.805 347.587H100.799C98.4071 347.59 96.1144 348.54 94.4238 350.227C92.7332 351.915 91.783 354.204 91.7818 356.59V356.883H114.957V347.587H112.935Z" fill="#363435"/>
<path d="M181.055 357.287C181.055 357.378 181.037 357.469 181.002 357.554C180.968 357.639 180.916 357.717 180.852 357.782C180.787 357.847 180.71 357.899 180.625 357.934C180.54 357.97 180.449 357.988 180.357 357.989H61.1662C60.9804 357.989 60.8022 357.915 60.6708 357.784C60.5394 357.653 60.4656 357.475 60.4656 357.289C60.4656 357.104 60.5394 356.926 60.6708 356.795C60.8022 356.664 60.9804 356.59 61.1662 356.59H180.357C180.542 356.591 180.719 356.664 180.85 356.795C180.981 356.925 181.054 357.102 181.055 357.287Z" fill="#CCCCCC"/>
<path d="M58.0003 0C57.0779 16.3606 51.0508 32.0237 40.7628 44.7962C30.4748 57.5687 16.4412 66.8111 0.626951 71.2291C0.609362 71.6386 0.59177 72.0481 0.585907 72.4576C16.7278 68.0268 31.0671 58.6487 41.5794 45.6477C52.0917 32.6466 58.2458 16.6792 59.1729 0H58.0003Z" fill="white"/>
<path d="M40.0426 0C37.318 10.3291 32.5151 19.9969 25.9264 28.4147C19.3376 36.8325 11.1008 43.8242 1.71742 48.9642C1.68224 49.4263 1.6588 49.8826 1.63535 50.3448C11.36 45.1305 19.8994 37.9668 26.7176 29.3031C33.5358 20.6395 38.4855 10.663 41.2561 0H40.0426Z" fill="white"/>
</g>
<defs>
<clipPath id="clip0">
<rect width="238" height="358" fill="white"/>
</clipPath>
</defs>
</svg>
