<svg width="531" height="258" viewBox="0 0 531 258" fill="none" xmlns="http://www.w3.org/2000/svg">
<g clip-path="url(#clip0)">
<path d="M318.805 176.069C360.931 176.069 395.081 174.298 395.081 172.114C395.081 169.929 360.931 168.158 318.805 168.158C276.679 168.158 242.529 169.929 242.529 172.114C242.529 174.298 276.679 176.069 318.805 176.069Z" fill="#F0F0F0"/>
<path d="M83.1968 258C97.2388 258 108.622 256.229 108.622 254.045C108.622 251.86 97.2388 250.089 83.1968 250.089C69.1548 250.089 57.7715 251.86 57.7715 254.045C57.7715 256.229 69.1548 258 83.1968 258Z" fill="#F0F0F0"/>
<path d="M330.34 5.70377L330.046 8.58936L385.692 14.2571L385.986 11.3715L330.34 5.70377Z" fill="#E6E6E6"/>
<path d="M314.962 10.7738C317.937 10.7738 320.349 8.36208 320.349 5.38713C320.349 2.41217 317.937 0.000488281 314.962 0.000488281C311.988 0.000488281 309.576 2.41217 309.576 5.38713C309.576 8.36208 311.988 10.7738 314.962 10.7738Z" fill="#E6E6E6"/>
<path d="M330.34 21.5251L330.046 24.4106L385.692 30.0783L385.986 27.1928L330.34 21.5251Z" fill="#E4E4E4"/>
<path d="M314.962 26.595C317.937 26.595 320.349 24.1834 320.349 21.2084C320.349 18.2335 317.937 15.8218 314.962 15.8218C311.988 15.8218 309.576 18.2335 309.576 21.2084C309.576 24.1834 311.988 26.595 314.962 26.595Z" fill="#E4E4E4"/>
<path d="M330.34 37.3463L330.046 40.2319L385.692 45.8996L385.986 43.014L330.34 37.3463Z" fill="#2B3335"/>
<path d="M314.962 42.4163C317.937 42.4163 320.349 40.0047 320.349 37.0297C320.349 34.0547 317.937 31.6431 314.962 31.6431C311.988 31.6431 309.576 34.0547 309.576 37.0297C309.576 40.0047 311.988 42.4163 314.962 42.4163Z" fill="#2B3335"/>
<path d="M11.2572 94.2659L41.9512 70.9702L41.7009 116.328L12.7629 140.202L11.2572 94.2659Z" fill="#E4E4E4"/>
<path d="M145.163 9.4619L204.906 1.02295L205.803 53.0608L145.688 63.0163L145.163 9.4619Z" fill="#2B3335"/>
<path d="M491.697 98.0303V144.027L521.401 172.577L522.788 125.95L491.697 98.0303Z" fill="#2B3335"/>
<path d="M491.873 56.7178V63.504L512.569 80.3197L513.541 74.4997L491.873 56.7178Z" fill="#2B3335"/>
<path d="M492.201 68.3574L491.873 75.1493L531 112.007L530.356 104.249L492.201 68.3574Z" fill="#E6E6E6"/>
<path d="M491.873 80.9692V87.4334L531 124.947V116.539L491.873 80.9692Z" fill="#E6E6E6"/>
<path d="M84.6658 249.315H81.5656L80.0903 237.354H84.6663L84.6658 249.315Z" fill="#9E616A"/>
<path d="M85.4567 252.321L75.4591 252.32V252.194C75.4592 251.162 75.8692 250.172 76.5989 249.442C77.3287 248.712 78.3184 248.302 79.3504 248.302H79.3507L85.4568 248.302L85.4567 252.321Z" fill="#363435"/>
<path d="M95.6608 246.24L92.7945 247.423L86.8687 236.931L91.0983 235.185L95.6608 246.24Z" fill="#9E616A"/>
<path d="M97.5385 248.717L88.297 252.531L88.2488 252.415C87.8551 251.46 87.8565 250.389 88.2526 249.436C88.6488 248.483 89.4072 247.726 90.3611 247.333L90.3614 247.333L96.0057 245.003L97.5385 248.717Z" fill="#363435"/>
<path d="M86.7084 159.369C86.7084 159.369 98.2131 164.822 90.5689 189.798L89.9873 209.557L86.1744 245.883L79.9706 245.488L77.2269 210.518L68.0817 181.635L69.8965 167.685L86.7084 159.369Z" fill="#363435"/>
<path d="M69.1502 171.371L70.0857 153.236C63.7235 142.552 70.2444 136.448 70.7743 135.979L76.6039 127.466L81.7045 126.065C82.7061 125.79 83.7579 125.751 84.7773 125.951C85.7966 126.151 86.7557 126.585 87.5792 127.218C88.4028 127.851 89.0685 128.666 89.5239 129.6C89.9794 130.534 90.2123 131.56 90.2043 132.599L89.9756 162.313L69.1502 171.371Z" fill="#2B3335"/>
<path d="M80.787 215.8L87.1981 242.392L94.5449 239.406L84.5889 215.336L80.787 215.8Z" fill="#363435"/>
<path d="M71.0118 180.777C71.4461 180.593 71.8347 180.316 72.1504 179.966C72.466 179.615 72.701 179.2 72.8388 178.749C72.9766 178.297 73.0137 177.822 72.9477 177.355C72.8817 176.888 72.7141 176.441 72.4566 176.045L78.957 166.839L73.5414 166.529L67.781 175.203C67.1458 175.68 66.7073 176.373 66.5488 177.151C66.3903 177.929 66.5227 178.738 66.9209 179.425C67.3191 180.112 67.9555 180.629 68.7095 180.878C69.4634 181.128 70.2826 181.092 71.0118 180.777Z" fill="#9E616A"/>
<path d="M73.2673 136.36L76.1093 156.41L68.0817 171.529L74.799 175.734L86.3721 158.624L81.526 134.381L73.2673 136.36Z" fill="#2B3335"/>
<path d="M79.1617 122.735C83.8986 122.735 87.7385 118.895 87.7385 114.158C87.7385 109.421 83.8986 105.581 79.1617 105.581C74.4249 105.581 70.5849 109.421 70.5849 114.158C70.5849 118.895 74.4249 122.735 79.1617 122.735Z" fill="#9E616A"/>
<path d="M92.0939 146.142C92.4143 141.344 94.4231 136.849 96.0426 132.321C97.6619 127.792 98.9192 122.864 97.6948 118.213C96.979 115.816 95.8539 113.561 94.3692 111.547C91.6901 107.661 88.2744 104.048 83.8482 102.411C79.4219 100.773 73.8438 101.59 70.9319 105.304C69.8637 106.611 69.2885 108.252 69.3069 109.939C69.3272 110.778 69.551 111.599 69.9591 112.331C70.3673 113.064 70.9475 113.686 71.6497 114.144C72.4583 114.634 73.4198 114.863 74.1558 115.456C74.8919 116.049 75.2947 117.255 74.6251 117.922L74.8925 118.054C77.2913 118.571 78.6296 121.29 78.6091 123.744C78.5887 126.198 77.5909 128.521 76.9732 130.896C76.3555 133.271 76.1747 135.995 77.6011 137.992C79.0188 139.977 81.7594 140.85 82.7943 143.06C84.2062 146.075 81.6472 149.526 81.9542 152.841C82.2491 156.024 85.232 158.427 88.3536 159.114C91.4752 159.8 94.7174 159.151 97.847 158.502C93.5883 156.268 91.7734 150.941 92.0939 146.142Z" fill="#363435"/>
<path d="M290.749 102.122L291.167 88.1862L289.307 75.2261L286.524 75.4148L284.182 89.0516L286.799 103.673C286.294 104.364 286.028 105.2 286.04 106.056C286.051 106.911 286.34 107.74 286.863 108.417C287.386 109.094 288.114 109.584 288.939 109.812C289.763 110.04 290.64 109.994 291.436 109.681C292.232 109.369 292.906 108.806 293.355 108.078C293.805 107.35 294.006 106.496 293.928 105.644C293.851 104.792 293.499 103.988 292.926 103.353C292.352 102.718 291.588 102.286 290.749 102.122H290.749Z" fill="#9E616A"/>
<path d="M290.397 134.82L282.595 167.851L288.473 168.269L299.74 136.3L290.397 134.82Z" fill="#9E616A"/>
<path d="M304.304 132.649L315.071 164.836L320.287 162.094L312.025 129.735L304.304 132.649Z" fill="#9E616A"/>
<path d="M289.991 104.927C289.991 104.927 286.253 109.061 292.704 116.996L284.339 160.812L290.554 163.072L301.855 133.69L312.025 159.117L319.935 155.727L309.129 116.996L310.33 107.133L307.342 104.372L289.991 104.927Z" fill="#E4E4E4"/>
<path d="M297.754 60.3223C297.754 60.3223 286.442 64.7544 287.572 71.535L290.355 98.3384L287.492 107.634C287.492 107.634 306.581 110.7 310.071 107.221L310.737 77.7505L311.987 66.1021L305.941 63.656L304.433 61.4184L297.754 60.3223Z" fill="#3F3D56"/>
<path d="M289.307 68.1738L285.182 77.4637L291.315 79.8392L289.307 68.1738Z" fill="#3F3D56"/>
<path d="M320.232 105.98L315.257 79.4208L307.342 78.7598L309.573 92.0924L314.963 107.178C314.517 107.836 314.28 108.612 314.282 109.406C314.283 110.2 314.523 110.975 314.971 111.63C315.419 112.286 316.054 112.791 316.793 113.081C317.532 113.371 318.341 113.432 319.115 113.256C319.889 113.08 320.593 112.676 321.134 112.095C321.675 111.513 322.029 110.783 322.149 109.998C322.269 109.214 322.151 108.411 321.809 107.694C321.467 106.978 320.918 106.38 320.232 105.98V105.98Z" fill="#9E616A"/>
<path d="M302.987 69.3482L307.551 82.3082L316.387 81.1407C316.387 81.1407 318.323 69.1448 311.987 66.1021L302.987 69.3482Z" fill="#3F3D56"/>
<path d="M309.185 50.4361C308.955 61.5309 291.867 59.6363 294.131 48.7362C295.875 40.0622 309.418 41.6039 309.185 50.4361Z" fill="#9E616A"/>
<path d="M305.021 40.2314C299.664 41.1448 291.367 38.9966 291.529 47.3851C290.98 48.2066 290.376 49.1066 290.766 50.1367C292.656 52.4415 293.644 56.0108 296.111 57.6297C298.309 57.6134 301.179 57.9204 302.654 56.002C303.28 54.429 302.172 52.5113 303.117 51.0351C304.356 50.6397 305.566 52.2258 306.05 49.9669C305.982 49.4185 306.063 48.862 306.285 48.356C306.506 47.8499 306.86 47.4129 307.31 47.0911C309.25 44.8693 307.928 40.7753 305.021 40.2314Z" fill="#3F3D56"/>
<path d="M281.073 167.028L290.311 167.028H290.311C291.873 167.028 293.37 167.648 294.474 168.752C295.578 169.857 296.199 171.354 296.199 172.916V173.107L281.073 173.107L281.073 167.028Z" fill="#363435"/>
<path d="M312.808 163.04L321.838 161.092L321.839 161.092C323.365 160.763 324.96 161.054 326.272 161.901C327.583 162.747 328.505 164.08 328.835 165.607L328.875 165.794L314.089 168.982L312.808 163.04Z" fill="#363435"/>
<path d="M351.188 169.32H354.172L355.592 157.806H351.187L351.188 169.32Z" fill="#FFB6B6"/>
<path d="M350.426 168.345L356.304 168.345H356.304C357.298 168.345 358.251 168.739 358.953 169.442C359.656 170.145 360.05 171.097 360.05 172.091V172.213L350.426 172.213L350.426 168.345Z" fill="#363435"/>
<path d="M335.932 169.32H338.917L340.337 157.806H335.932L335.932 169.32Z" fill="#FFB6B6"/>
<path d="M335.171 168.345L341.049 168.345H341.049C342.043 168.345 342.995 168.739 343.698 169.442C344.4 170.145 344.795 171.097 344.795 172.091V172.213L335.171 172.213L335.171 168.345Z" fill="#363435"/>
<path d="M370.785 41.0225C370.786 40.5215 370.675 40.0267 370.461 39.5737C370.247 39.1207 369.935 38.7207 369.549 38.4025C369.162 38.0843 368.709 37.8558 368.223 37.7335C367.737 37.6112 367.231 37.598 366.739 37.695C366.248 37.792 365.784 37.9967 365.381 38.2944C364.978 38.5921 364.646 38.9754 364.409 39.4168C364.172 39.8581 364.036 40.3465 364.01 40.8468C363.984 41.3471 364.07 41.8469 364.26 42.3103L357.401 53.1629L353.131 61.7686L356.655 64.8961L359.366 62.042L368.235 44.3037C368.964 44.1177 369.61 43.6942 370.072 43.1001C370.534 42.506 370.785 41.775 370.785 41.0225Z" fill="#FFB6B6"/>
<path d="M335.19 76.6207L328.467 75.5786L326.865 87.7427L318.139 106.521C317.57 106.876 317.119 107.392 316.842 108.003C316.566 108.614 316.477 109.293 316.587 109.955C316.697 110.617 317 111.231 317.459 111.72C317.918 112.21 318.511 112.552 319.165 112.704C319.818 112.856 320.501 112.811 321.129 112.574C321.757 112.338 322.3 111.921 322.691 111.375C323.081 110.83 323.301 110.181 323.323 109.511C323.345 108.84 323.168 108.179 322.813 107.609L331.937 91.1332L335.19 76.6207Z" fill="#FFB6B6"/>
<path d="M338.916 96.8843C338.916 96.8843 333.003 102.352 333.755 116.1L335.411 137.338L334.993 166.943L341.066 166.466L346.371 116.851L351.456 137.193L349.631 164.29L355.48 164.426L361.626 133.803L360.17 111.103L357.722 96.8843H338.916Z" fill="#363435"/>
<path d="M345.241 64.8677L331.116 68.823L338.298 90.3433L337.225 98.5761L359.004 98.7171L353.96 82.8045C353.96 82.8045 356.79 76.9835 353.558 72.9032L345.241 64.8677Z" fill="#E4E4E4"/>
<path d="M343.546 68.2576L345.241 64.8674C345.241 64.8674 345.186 64.0154 349.169 63.5938L353.842 58.9492L358.119 63.2122L350.891 73.9081L343.546 68.2576Z" fill="#E4E4E4"/>
<path d="M336.766 71.648C336.766 71.648 331.681 65.9976 328.856 68.8228C326.031 71.648 327.479 80.6316 327.479 80.6316L336.278 81.9971L336.766 71.648Z" fill="#E4E4E4"/>
<path d="M339.345 49.9282C348.005 49.9671 348.005 63.1352 339.345 63.1729C330.685 63.134 330.686 49.9659 339.345 49.9282Z" fill="#FFB6B6"/>
<path d="M340.309 56.1126C341.48 56.802 342.696 57.5072 344.047 57.655C345.397 57.8028 346.926 57.2344 347.468 55.9886C347.637 55.5569 347.727 55.0981 347.733 54.6345C347.852 52.2683 347.033 49.9507 345.455 48.1843C344.662 47.3185 343.693 46.6337 342.612 46.1766C341.531 45.7196 340.364 45.501 339.191 45.5358C336.953 45.6331 334.886 46.6924 332.9 47.7287C331.074 48.6817 329.146 49.7318 328.154 51.5369C326.684 54.2117 327.756 57.4865 328.041 60.5254C328.241 62.7913 327.983 65.0744 327.282 67.2383C326.581 69.4022 325.45 71.4027 323.959 73.1202L336.28 74.2878C337.773 74.5079 339.291 74.4925 340.779 74.242C342.047 73.9587 343.215 73.3371 344.158 72.4432C345.101 71.5493 345.784 70.4164 346.135 69.1652C346.486 67.914 346.491 66.5911 346.15 65.3371C345.809 64.0832 345.135 62.9451 344.198 62.0438C342.449 60.36 339.637 59.1678 339.568 56.7409" fill="#363435"/>
<path d="M0 85.9293L45.1333 52.8872L44.7762 55.7141L0.140687 89.0518L0 85.9293Z" fill="#2B3335"/>
<path d="M235.58 239.047C248.025 238.996 248.025 241.743 235.579 241.691C223.135 241.743 223.135 238.996 235.58 239.047Z" fill="#F0F0F0"/>
<path d="M54.2124 237.917C66.6574 237.865 66.6575 240.613 54.2121 240.561C41.7674 240.612 41.7673 237.865 54.2124 237.917Z" fill="#F0F0F0"/>
<path d="M402.257 189.888C414.702 189.837 414.702 192.584 402.257 192.532C389.812 192.584 389.812 189.836 402.257 189.888Z" fill="#F0F0F0"/>
<path d="M401.263 187.88C401.288 186.674 400.423 185.364 399.217 185.356C398.736 185.389 398.281 185.584 397.925 185.909C397.569 186.234 397.333 186.669 397.257 187.145C397.196 187.623 397.234 188.109 397.37 188.571C397.506 189.033 397.736 189.462 398.046 189.831C398.669 190.564 399.392 191.207 400.193 191.74L400.405 190.964C400.257 191.057 400.099 191.135 399.934 191.195C400.582 190.178 401.238 189.086 401.263 187.88Z" fill="#F0F0F0"/>
<path d="M400.405 190.964C400.591 190.845 400.761 190.704 400.912 190.544C400.773 190.572 400.635 190.609 400.496 190.635L400.405 190.964Z" fill="#F0F0F0"/>
<path d="M409.462 181.523C408.904 181.085 408.244 180.798 407.544 180.689C406.844 180.58 406.127 180.653 405.463 180.901C404.805 181.161 404.211 181.562 403.725 182.077C403.238 182.592 402.871 183.207 402.649 183.88C402.213 185.176 402.303 186.585 402.091 187.937C401.97 188.905 401.559 189.813 400.912 190.544C403.077 190.112 405.181 189.418 407.178 188.478C408.622 187.795 410.116 186.855 410.617 185.339C410.819 184.659 410.817 183.936 410.612 183.257C410.406 182.579 410.006 181.976 409.462 181.523Z" fill="#F0F0F0"/>
<path d="M235.716 237.039C235.741 235.833 234.876 234.523 233.67 234.515C233.189 234.548 232.733 234.742 232.378 235.067C232.022 235.392 231.786 235.828 231.71 236.304C231.649 236.782 231.687 237.267 231.823 237.729C231.959 238.192 232.189 238.621 232.498 238.99C233.122 239.723 233.845 240.366 234.646 240.899L234.858 240.122C234.71 240.216 234.552 240.294 234.387 240.354C235.035 239.337 235.691 238.245 235.716 237.039Z" fill="#F0F0F0"/>
<path d="M234.858 240.123C235.044 240.004 235.214 239.863 235.365 239.703C235.226 239.731 235.088 239.768 234.948 239.794L234.858 240.123Z" fill="#F0F0F0"/>
<path d="M243.914 230.682C243.357 230.244 242.697 229.957 241.997 229.848C241.297 229.74 240.58 229.812 239.916 230.06C239.258 230.32 238.664 230.721 238.178 231.236C237.691 231.751 237.324 232.366 237.102 233.039C236.666 234.336 236.756 235.744 236.544 237.096C236.423 238.064 236.012 238.973 235.365 239.703C237.53 239.271 239.634 238.577 241.631 237.637C243.075 236.955 244.569 236.014 245.07 234.498C245.272 233.818 245.27 233.095 245.064 232.416C244.859 231.738 244.459 231.135 243.914 230.682Z" fill="#F0F0F0"/>
<path d="M54.3485 235.909C54.3738 234.703 53.5086 233.393 52.3024 233.385C51.8216 233.418 51.3661 233.612 51.0102 233.937C50.6543 234.262 50.4189 234.698 50.3424 235.174C50.2813 235.652 50.3199 236.137 50.4556 236.6C50.5914 237.062 50.8214 237.491 51.1311 237.86C51.7545 238.593 52.4771 239.236 53.2781 239.769L53.491 238.992C53.3424 239.086 53.1842 239.164 53.0191 239.224C53.6681 238.207 54.3232 237.115 54.3485 235.909Z" fill="#F0F0F0"/>
<path d="M53.4911 238.993C53.6762 238.873 53.8464 238.732 53.998 238.573C53.8585 238.601 53.721 238.638 53.5812 238.664L53.4911 238.993Z" fill="#F0F0F0"/>
<path d="M62.5471 229.551C61.9898 229.114 61.3294 228.827 60.6293 228.718C59.9292 228.609 59.2129 228.682 58.5491 228.93C57.8902 229.189 57.2966 229.591 56.8103 230.106C56.324 230.62 55.9569 231.236 55.735 231.908C55.2987 233.205 55.3886 234.614 55.1768 235.966C55.0553 236.934 54.6445 237.842 53.998 238.573C56.1625 238.14 58.2664 237.447 60.2634 236.507C61.7074 235.824 63.2018 234.884 63.7027 233.367C63.9045 232.688 63.9025 231.964 63.6971 231.286C63.4917 230.608 63.0919 230.005 62.5471 229.551Z" fill="#F0F0F0"/>
</g>
<defs>
<clipPath id="clip0">
<rect width="531" height="258" fill="white"/>
</clipPath>
</defs>
</svg>
